<svg id="Layer_1" data-name="Layer 1" xmlns="http://www.w3.org/2000/svg" viewBox="0 0 772.5 841.89"><defs><style>.cls-1{fill:#fff;}.cls-2{fill:#fdbc5a;}.cls-3{font-size:26px;}.cls-3,.cls-6{fill:#231f20;}.cls-10,.cls-11,.cls-3,.cls-6{font-family:Poppins-Bold, Poppins;font-weight:700;}.cls-4,.cls-5{fill:none;stroke-miterlimit:10;}.cls-4{stroke:#fdbc59;stroke-width:2px;}.cls-5{stroke:#fcbc79;}.cls-6{font-size:12px;}.cls-11,.cls-12,.cls-7,.cls-9{font-size:11px;}.cls-8,.cls-9{font-family:Poppins-Regular, Poppins;font-weight:400;}.cls-10{letter-spacing:0em;}.cls-11{letter-spacing:0em;}.cls-12{letter-spacing:0em;}</style></defs><title>cv</title><rect class="cls-1" x="205" width="390.28" height="841.89"/><rect class="cls-2" width="205" height="841.89"/><text class="cls-3" transform="translate(280.45 74.24)">MARKÉTA HÁJKOVÁ</text><line class="cls-4" x1="306" y1="105" x2="517" y2="105"/><line class="cls-5" x1="772" y1="298" x2="772" y2="299"/><text class="cls-6"><tspan x="234.25" y="179.7">PRACOVNÍ ZKUŠENOSTI</tspan><tspan class="cls-7"><tspan x="234.25" y="207.3">2021 - současnost Virtual Lab, s. r. o.</tspan></tspan><tspan class="cls-8"><tspan x="234.25" y="236.1">• </tspan><tspan class="cls-7" x="242.4" y="236.1">tvorba webových stránek v softwaru Wordpress</tspan></tspan><tspan class="cls-9"><tspan x="234.25" y="249.3">• tvorba infografiky pro sociální sítě, prezentace, emailing </tspan></tspan><tspan class="cls-7"><tspan x="234.25" y="276.9">2021 - současnost Czechitas</tspan></tspan><tspan class="cls-8"><tspan x="234.25" y="305.7">•</tspan><tspan class="cls-10" x="239.2" y="305.7"> </tspan><tspan class="cls-7" x="241.74" y="305.7">kouč UX, HTML/CSS</tspan></tspan><tspan class="cls-7"><tspan x="234.25" y="333.3">2017 - 2019 Nemocnice České Budějovice, a. s.</tspan><tspan class="cls-8" x="489.78" y="333.3"> </tspan></tspan><tspan class="cls-8"><tspan x="234.25" y="362.1">•</tspan><tspan class="cls-10" x="239.2" y="362.1"> </tspan><tspan class="cls-7" x="241.74" y="362.1">laboratoř klinické chemie</tspan></tspan><tspan x="234.25" y="390.9">VZDĚLÁNÍ</tspan><tspan class="cls-7"><tspan x="234.25" y="418.5">2021 Digitální akademie Web, Czechitas</tspan></tspan><tspan class="cls-8"><tspan x="234.25" y="447.3">• </tspan><tspan class="cls-7" x="242.4" y="447.3">tvorba webových stránek - HTML/CSS, JavaScript, React, GIT</tspan></tspan><tspan class="cls-7"><tspan x="234.25" y="473.7">2014 - 2017 Jihočeská univerzita v Českých Budějovicích</tspan></tspan><tspan class="cls-8"><tspan x="234.25" y="502.5">•</tspan><tspan class="cls-11" x="239.2" y="502.5"> </tspan><tspan class="cls-7" x="241.53" y="502.5">studium oboru zdravotní laborant, titul Bc.</tspan></tspan></text><text/><text/><text/><text class="cls-6" transform="translate(21.31 181.64)">KONTAKT<tspan class="cls-9"><tspan x="0" y="27.6">hajek.marketa@seznam.cz</tspan></tspan><tspan x="0" y="56.4">KURZY</tspan><tspan class="cls-7"><tspan x="0" y="84">Google</tspan></tspan><tspan class="cls-8"><tspan x="0" y="98.4">• </tspan><tspan class="cls-12" x="8.15" y="98.4">Google UX Design </tspan></tspan><tspan class="cls-9"><tspan x="0" y="111.6" xml:space="preserve">   Professional Certificate </tspan></tspan><tspan class="cls-7"><tspan x="0" y="139.2">Udemy</tspan></tspan><tspan class="cls-8"><tspan x="0" y="153.6">• </tspan><tspan class="cls-12" x="8.15" y="153.6">Graphic Design Masterclass </tspan></tspan><tspan class="cls-9"><tspan x="0" y="166.8" xml:space="preserve">   by Lindsay Marsh</tspan></tspan><tspan x="0" y="195.6">DOVEDNOSTI</tspan><tspan class="cls-8"><tspan x="0" y="224.4">• </tspan><tspan class="cls-7" x="8.15" y="224.4">Adobe XD</tspan></tspan><tspan class="cls-9"><tspan x="0" y="237.6">• Figma</tspan><tspan x="0" y="250.8">• Adobe Photoshop</tspan><tspan x="0" y="264">• Adobe Illustrator</tspan><tspan x="0" y="277.2">• Adobe Lightroom</tspan><tspan x="0" y="290.4">• HTML/CSS</tspan><tspan x="0" y="303.6">• JavaScript </tspan><tspan x="0" y="316.8">• React </tspan><tspan x="0" y="330">• GIT</tspan><tspan x="0" y="343.2">• Wordpress</tspan></tspan><tspan x="0" y="370.8">JAZYKOVÉ ZNALOSTI</tspan><tspan class="cls-8"><tspan x="0" y="399.6">• </tspan><tspan class="cls-12" x="8.15" y="399.6">anglický jazyk</tspan></tspan><tspan class="cls-9"><tspan x="0" y="412.8">• italský jazyk</tspan><tspan x="0" y="426">• francouzský jazyk</tspan><tspan x="0" y="439.2">• německý jazyk</tspan></tspan><tspan x="0" y="468">OSTATNÍ</tspan><tspan class="cls-8"><tspan x="0" y="496.8">• </tspan><tspan class="cls-7" x="8.15" y="496.8">Znalost Microsoft Office</tspan></tspan><tspan class="cls-9"><tspan x="0" y="510">• Řidičský průkaz skupiny B</tspan><tspan x="0" y="523.2" xml:space="preserve"> - aktivní řidič</tspan><tspan x="0" y="536.4">• Samostatnost</tspan></tspan></text><text/><text/><text/><text/><text/><text/></svg>