<?xml version="1.0" encoding="utf-8"?>
<!-- Generator: Adobe Illustrator 23.0.3, SVG Export Plug-In . SVG Version: 6.00 Build 0)  -->
<svg version="1.1" id="Layer_1" xmlns="http://www.w3.org/2000/svg" xmlns:xlink="http://www.w3.org/1999/xlink" x="0px" y="0px"
	 viewBox="0 0 512 512" style="enable-background:new 0 0 512 512;" xml:space="preserve">
<style type="text/css">
	.st0{fill:#FCB74D;}
</style>
<g transform="translate(0.000000,512.000000) scale(0.100000,-0.100000)">
	<path class="st0" d="M2384,5060c-1012-69-1891-738-2235-1703c-53-146-102-349-125-512c-23-157-25-496-5-655
		C121,1374,594,664,1306,258c164-94,418-200,483-202c51-1,94,20,116,57c18,30,19,50,16,267c-1,129-3,236-4,236c-1,1-38-4-82-12
		c-263-43-497,16-646,165c-58,58-76,86-134,206c-94,196-149,271-255,348c-78,56-120,98-120,119c0,50,121,67,217,30
		c125-47,208-119,299-258c126-191,284-276,485-261c77,6,233,49,245,68c3,6,13,38,20,71c19,80,68,181,110,228c40,45,44,42-86,60
		c-103,14-282,60-368,94c-362,143-571,410-649,829c-25,134-25,463,0,567c36,149,103,285,195,398l43,53l-15,47c-52,161-46,370,16,564
		c20,61,24,67,54,73c107,20,352-68,576-206l98-61l87,20c204,47,298,57,553,57c256,0,349-10,553-57l88-20l77,48
		c153,96,304,167,407,193c85,21,159,31,191,25c28-5,33-12,52-72c57-178,67-404,23-542l-21-65l20-25c98-121,175-269,212-409
		c26-98,36-348,19-488c-74-608-407-935-1041-1023c-120-16-118-15-83-53c46-48,90-134,115-223c20-74,22-106,27-529
		c7-492,5-482,66-507c47-20,102-13,200,26c348,135,622,311,884,569c417,410,679,942,752,1527c20,159,18,498-5,655
		c-173,1219-1151,2131-2373,2215C2562,5071,2548,5071,2384,5060z"/>
</g>
</svg>
