<?xml version="1.0" encoding="utf-8"?>
<!-- Generator: Adobe Illustrator 23.0.3, SVG Export Plug-In . SVG Version: 6.00 Build 0)  -->
<svg version="1.1" id="Layer_1" xmlns="http://www.w3.org/2000/svg" xmlns:xlink="http://www.w3.org/1999/xlink" x="0px" y="0px"
	 viewBox="0 0 512 512" style="enable-background:new 0 0 512 512;" xml:space="preserve">
<style type="text/css">
	.st0{fill:#FCB74D;}
</style>
<g transform="translate(0.000000,512.000000) scale(0.100000,-0.100000)">
	<path class="st0" d="M1218,5109c-167-20-364-85-514-170C316,4716,60,4328,11,3887c-15-133-15-2521,0-2654C82,590,590,82,1233,11
		c133-15,2521-15,2654,0c643,71,1151,579,1222,1222c15,133,15,2521,0,2654c-71,643-579,1151-1222,1222
		C3769,5122,1333,5122,1218,5109z M3991,4788c208-57,368-148,508-289c141-140,232-300,290-508l26-96V2560V1225l-26-96
		c-58-208-149-368-290-508c-140-141-300-232-508-290l-96-26H2560H1225l-96,26c-208,58-368,149-508,290c-141,140-232,300-290,508
		l-26,96v1335v1335l26,96c58,208,149,368,289,508c166,166,385,276,615,310c33,5,645,8,1360,7l1300-1L3991,4788z"/>
	<path class="st0" d="M3945,4453c-244-34-410-271-351-501c41-163,145-266,307-308c275-70,545,179,499,460c-25,157-140,289-290,334
		C4066,4451,3985,4458,3945,4453z M4057,4134c54-34,63-117,18-164c-37-38-82-47-128-25c-70,33-85,125-29,177
		C3959,4161,4007,4165,4057,4134z"/>
	<path class="st0" d="M2367,3945c-553-76-1020-492-1161-1037c-124-477,15-981,368-1334c550-550,1422-550,1972,0s550,1422,0,1972
		C3230,3861,2807,4005,2367,3945z M2720,3645c240-36,444-139,615-310c431-430,431-1120,0-1550c-430-431-1120-431-1550,0
		c-431,430-431,1120,0,1550C2034,3584,2376,3698,2720,3645z"/>
</g>
</svg>
